@startuml
skinparam useBetaStyle true
skinparam linetype ortho

<style>
    classDiagram{
        FontColor Black
        BackgroundColor White
        LineThickness 2
        LineColor Black
        RoundCorner 10
    }
</style>

app.utils.coding <|-- app.services.raw_can_recv
app.services.raw_can_recv.reader <|-- app.services.raw_can_recv
app.utils.communication <|-- app.services.raw_can_recv
app.utils.coding <|-- app.services.raw_can_send
app.schemas.can <|-- app.services.raw_can_send
app.utils.communication <|-- app.services.raw_can_send
app.services.high_level_can_recv.reader <|-- app.services.high_level_can_recv
app.services.high_level_can_recv.converter <|-- app.services.high_level_can_recv
app.utils.communication <|-- app.services.high_level_can_recv
app.utils.coding <|-- app.services.high_level_can_recv
app.schemas.can <|-- app.services.high_level_can_recv
app.schemas.can_commands.base <|-- app.services.high_level_can_recv
app.utils.communication <|-- app.services.high_level_can_send
app.utils.coding <|-- app.services.high_level_can_send
app.schemas.can_commands <|-- app.services.high_level_can_send
app.services.high_level_can_send.helper <|-- app.services.high_level_can_send
app.schemas.can <|-- app.services.high_level_can_send
app.schemas.can_commands.base <|-- app.services.high_level_can_send
app.schemas.can_commands.system <|-- app.services.high_level_can_send
app.schemas.can_commands.general <|-- app.services.high_level_can_send
app.schemas.can_commands.mfx <|-- app.services.high_level_can_send
app.services.high_level_can_recv.converter <|-- app.services.high_level_can
app.services.high_level_can.schemas.lok <|-- app.services.high_level_can
app.utils.communication <|-- app.services.high_level_can
app.services.high_level_can.schemas.s88 <|-- app.services.high_level_can
app.utils.coding <|-- app.services.high_level_can
app.schemas.can_commands <|-- app.services.high_level_can
app.schemas.can <|-- app.services.high_level_can
app.services.high_level_can.schemas.system <|-- app.services.high_level_can
app.schemas.can_commands.base <|-- app.services.high_level_can
app.schemas.can_commands.system <|-- app.services.high_level_can
app.services.high_level_can.configs <|-- app.services.high_level_can
app.schemas.can_commands.general <|-- app.services.high_level_can
app.schemas.can_commands.loc <|-- app.services.high_level_can
app.services.high_level_can.helper <|-- app.services.high_level_can
app.utils.coding <|-- app.schemas
app.schemas.can_commands.base <|-- app.schemas
app.schemas.can <|-- app.schemas
app.utils.coding <|-- app.models
app.schemas.can_commands <|-- app.models
app.schemas.can <|-- app.models
app.schemas.can_commands.base <|-- app.models
app.schemas.can_commands.system <|-- app.models
app.utils.coding <|-- app.utils
namespace app {
namespace external_services {
namespace grafana {
}
}
namespace services {
namespace raw_can_recv {
}
namespace raw_can_send {
}
namespace high_level_can_recv {
}
namespace high_level_can_send {
}
namespace high_level_can {
}
namespace database_read {
}
}
namespace schemas {
}
namespace models {
}
namespace utils {
}
}
@enduml